HIERARCHY
ROOT ui
{
	 OFFSET 0 0 0
	 CHANNELS 3 XPosition YPosition Z Position
	 EndSite
	 {
	 OFFSET 0 -1 0
	 }
}
ROOT li
{
	 OFFSET 0 0 0
	 CHANNELS 3 XPosition YPosition Z Position
	 EndSite
	 {
	 OFFSET 0 -1 0
	 }
}
ROOT ul
{
	 OFFSET 0 0 0
	 CHANNELS 3 XPosition YPosition Z Position
	 EndSite
	 {
	 OFFSET 0 -1 0
	 }
}
ROOT ll
{
	 OFFSET 0 0 0
	 CHANNELS 3 XPosition YPosition Z Position
	 EndSite
	 {
	 OFFSET 0 -1 0
	 }
}
ROOT tt
{
	 OFFSET 0 0 0
	 CHANNELS 3 XPosition YPosition Z Position
	 EndSite
	 {
	 OFFSET 0 -1 0
	 }
}
ROOT tb
{
	 OFFSET 0 0 0
	 CHANNELS 3 XPosition YPosition Z Position
	 EndSite
	 {
	 OFFSET 0 -1 0
	 }
}
ROOT td
{
	 OFFSET 0 0 0
	 CHANNELS 3 XPosition YPosition Z Position
	 EndSite
	 {
	 OFFSET 0 -1 0
	 }
}
ROOT v
{
	 OFFSET 0 0 0
	 CHANNELS 3 XPosition YPosition Z Position
	 EndSite
	 {
	 OFFSET 0 -1 0
	 }
}
ROOT bn
{
	 OFFSET 0 0 0
	 CHANNELS 3 XPosition YPosition Z Position
	 EndSite
	 {
	 OFFSET 0 -1 0
	 }
}
MOTION
Frames: 21
Frame Time: 0.002
-0.006887395858764648	-1.3533399999141694E-4	0		0.53566845703125	-2.6626044921875	0		-0.8828497924804688	0.15855589294433595	0		-0.25720684814453126	-3.2480869140625	0		1.667752197265625	-1.163562744140625	0		3.053560791015625	-0.061938488006591796	0		4.377935546875	0.407448486328125	0		5.959794921875	0.4613661193847656	0		-0.2195574951171875	5.87722216796875	0		
-0.002594819068908691	0.0027978160381317138	0		0.5590648803710937	-2.649931396484375	0		-0.8894078369140626	0.17264398193359376	0		-0.28586526489257813	-3.23871142578125	0		1.6683931884765626	-1.1335960693359375	0		3.065865234375	-0.05814418029785156	0		4.4032041015625	0.4080557556152344	0		5.9639453125	0.45323782348632813	0		-0.08693464660644531	5.89944775390625	0		
-0.006347536087036133	-1.831579953432083E-4	0		0.5474305419921875	-2.642809814453125	0		-0.8931728515625	0.16866836547851563	0		-0.2753982849121094	-3.22387939453125	0		1.670900146484375	-1.1166689453125	0		3.060392578125	-0.040118595123291016	0		4.364763671875	0.428513671875	0		5.95935595703125	0.46223361206054686	0		-0.08661257934570313	5.89941357421875	0		
-0.006034482002258301	-2.3810000717639922E-4	0		0.5497658081054687	-2.640892578125	0		-0.9037250366210937	0.17876081848144532	0		-0.2720373840332031	-3.21997412109375	0		1.65674658203125	-1.0765299072265626	0		3.06070556640625	-0.040178565979003905	0		4.39516796875	0.43505047607421876	0		5.95966943359375	0.46216888427734376	0		-0.21958502197265625	5.87813623046875	0		
-0.01279461669921875	-0.007218301773071289	0		0.5521294555664062	-2.63899267578125	0		-0.9033927001953125	0.17868504333496094	0		-0.2706726379394531	-3.2180625	0		1.6195115966796876	-1.0440970458984375	0		3.026135009765625	-0.03278108596801758	0		4.35659716796875	0.44250360107421877	0		5.94788232421875	0.4532657165527344	0		-0.2202489013671875	5.87907470703125	0		
-0.0013145129680633544	0.002541871070861816	0		0.5056913452148437	-2.62345703125	0		-0.899006103515625	0.18153590393066407	0		-0.29412399291992186	-3.203836669921875	0		1.6353021240234376	-1.0113861083984375	0		3.0445478515625	-0.028102462768554687	0		4.3610361328125	0.44937384033203126	0		5.95310791015625	0.44413003540039064	0		-0.21795021057128905	5.87695556640625	0		
0.002084872007369995	0.005393470764160156	0		0.554152099609375	-2.61720361328125	0		-0.8986472778320312	0.18142367553710936	0		-0.29852249145507814	-3.186880859375	0		1.6003232421875	-0.9620109252929687	0		3.05735986328125	0.005640264987945557	0		4.35766064453125	0.4693372802734375	0		5.95757177734375	0.4519950866699219	0		-0.21761744689941406	5.87684619140625	0		
-5.852500200271606E-4	0.0023113551139831543	0		0.5176962890625	-2.604831298828125	0		-0.9141969604492187	0.18751023864746094	0		-0.2750478515625	-3.180311767578125	0		1.6412401123046876	-0.9216634521484375	0		3.053663330078125	5.84792971611023E-4	0		4.38794580078125	0.4628341064453125	0		5.94895361328125	0.45301821899414063	0		-0.21924623107910157	5.87874951171875	0		
-0.004247107982635498	-7.707030177116394E-4	0		0.547066162109375	-2.60635205078125	0		-0.9138197631835937	0.18737179565429687	0		-0.3303354187011719	-3.155703857421875	0		1.573226806640625	-0.8758782348632812	0		3.033296142578125	0.01973675537109375	0		4.383416015625	0.4697779235839844	0		5.949330078125	0.4529007568359375	0		-0.21888642883300782	5.87861328125	0		
-0.0038627429008483887	-9.191150069236756E-4	0		0.4955644226074219	-2.597807373046875	0		-0.92342138671875	0.18835565185546874	0		-0.29192453002929686	-3.154359375	0		1.60124951171875	-0.8283892211914062	0		3.05174560546875	0.02435107421875	0		4.387892578125	0.476580078125	0		5.9497138671875	0.4527584533691406	0		-0.25257173156738283	5.87391845703125	0		
-0.0034726738929748537	-0.0010798619985580445	0		0.5280009765625	-2.594395751953125	0		-0.9130452270507813	0.18706309509277344	0		-0.35134732055664064	-3.139720947265625	0		1.544603271484375	-0.7557855834960937	0		3.0256181640625	0.060542404174804686	0		4.38828369140625	0.47641259765625	0		5.954984375	0.4435227355957031	0		-0.25217265319824217	5.8737578125	0		
9.627199769020081E-4	0.0016939949989318848	0		0.4956020812988281	-2.5781318359375	0		-0.913528564453125	0.19590695190429688	0		-0.3326463928222656	-3.11613427734375	0		1.5807529296875	-0.6994364624023437	0		3.033146728515625	0.07026280975341796	0		4.3888544921875	0.4892203063964844	0		5.95050244140625	0.452390869140625	0		-0.21866162109375	5.8801455078125	0		
0.0013646759986877441	0.0015102440118789672	0		0.5400228881835938	-2.57590625	0		-0.9131253051757813	0.19572930908203126	0		-0.37606121826171873	-3.10072998046875	0		1.5600194091796875	-0.634343017578125	0		3.0566806640625	0.07975101470947266	0		4.38518017578125	0.4830611267089844	0		5.9509072265625	0.4521673278808594	0		-0.2172471466064453	5.8779501953125	0		
-0.002266205072402954	-0.0016305919885635377	0		0.5065992736816406	-2.56165283203125	0		-0.9167678833007813	0.1915965118408203	0		-0.3155779113769531	-3.09372314453125	0		1.592100830078125	-0.5839695434570312	0		3.064222900390625	0.08943559265136719	0		4.3945791015625	0.48170843505859373	0		5.95131982421875	0.45192111206054686	0		-0.0986241912841797	5.88918115234375	0		
-0.001849861979484558	-0.0018354680538177491	0		0.5369996948242187	-2.561263916015625	0		-0.9122964477539063	0.1953473205566406	0		-0.38687991333007815	-3.069964599609375	0		1.6133779296875	-0.5194639892578125	0		3.05090869140625	0.10938416290283202	0		4.39909326171875	0.4884038391113281	0		5.947634765625	0.44370858764648435	0		-0.2513601837158203	5.87402294921875	0		
-0.0014250199794769286	-0.002050221920013428	0		0.489572021484375	-2.547844482421875	0		-0.9018834838867188	0.19400984191894532	0		-0.3644670715332031	-3.06846923828125	0		1.6036534423828126	-0.4555567321777344	0		3.063387451171875	0.11297196960449218	0		4.40343017578125	0.4810834655761719	0		5.94905126953125	0.4424092102050781	0		-0.2148280029296875	5.87632958984375	0		
0.006089252948760986	0.0036317451000213623	0		0.523022705078125	-2.544516845703125	0		-0.8923399658203125	0.2016770477294922	0		-0.375657958984375	-3.0375302734375	0		1.5607418212890625	-0.4062176208496094	0		3.096195556640625	0.1402757568359375	0		4.41304443359375	0.4936783447265625	0		5.9574912109375	0.4419977111816406	0		-0.19916786193847658	5.88690673828125	0		
0.0034948010444641113	4.402469992637634E-4	0		0.538468994140625	-2.5419580078125	0		-0.8799328002929687	0.19829792785644532	0		-0.39598794555664063	-3.017476806640625	0		1.5465980224609375	-0.3752745361328125	0		3.0625791015625	0.13545376586914062	0		4.40432373046875	0.48050234985351564	0		5.94506494140625	0.45085031127929687	0		-0.21672674560546876	5.879919921875	0		
0.003951415061950684	2.0096400380134583E-4	0		0.48497030639648436	-2.535481689453125	0		-0.9154563598632812	0.19955575561523436	0		-0.40341787719726563	-3.005603515625	0		1.5561953125	-0.3646602783203125	0		3.05727978515625	0.1532444305419922	0		4.41188134765625	0.48709811401367187	0		5.95040771484375	0.4414496765136719	0		-0.21617605590820313	5.87968408203125	0		
3.786669969558716E-4	-0.0029911339282989503	0		0.5065278625488281	-2.526018798828125	0		-0.91498583984375	0.19932490539550782	0		-0.39892034912109375	-2.99989697265625	0		1.521592529296875	-0.3694614868164062	0		3.074707763671875	0.14971949768066406	0		4.4101689453125	0.47280694580078125	0		5.9508818359375	0.44110482788085936	0		-0.2165977020263672	5.880455078125	0		
8.550819754600525E-4	-0.003243330001831055	0		0.4571015625	-2.515607666015625	0		-0.9104661254882812	0.20203376770019532	0		-0.42534307861328124	-2.988780517578125	0		1.5220628662109374	-0.3697388305664063	0		3.088373779296875	0.16324032592773438	0		4.4106533203125	0.4724818115234375	0		5.95136572265625	0.44075421142578125	0		-0.2491151580810547	5.87365087890625	0		
